# xmcd
#
# Track frame offsets: 
#        150
#        11995
#        21905
#        35347
#        49437
#        60985
#        74375
#        87654
#        98277
#        114540
#        125577
#        139605
#        156620
#        169837
#        180445
#        193152
#        205487
#        218445
#
# Disc length: 3061 seconds
#
# Revision: 0
# Processed by: cddbd v1.5.2PL0 Copyright (c) Steve Scherf et al.
# Submitted via: ExactAudioCopy v0.95b4
#
DISCID=050bf312
DTITLE=Various Artist - Ultimate Country
DYEAR=2005
DGENRE=Country
TTITLE0=Kenny Rogers - Me And Bobby McGee
TTITLE1=Mats Rådberg and Rankarna - From A Jack To A King
TTITLE2=Loretta Lynn - Coal Miner's Daughter
TTITLE3=Rank Strangers - Early Morning Rain
TTITLE4=Johnny Cash - I Walk The Line
TTITLE5=Mats Rådberg and Rankarna - Help Me Make It Through The Night
TTITLE6=New Strangers - Take Me Home
TTITLE7=New Strangers - Country Roads
TTITLE8=Mats Rådberg and Rankarna - Gentle On My Mind
TTITLE9=Roger Mi8ller - King Of The Road
TTITLE10=Rank Strangers - Ruby Don't Take Your Love To Town
TTITLE11=C.W. McCall - Convoy
TTITLE12=Sir Douglas Quintet - Meet Me In Stockholm
TTITLE13=Jerry Lee Lewis and Linda Gail Lewis - Jackson
TTITLE14=Tanya Tucker - San Antonio Stroll
TTITLE15=Patsy Cline - Crazy
TTITLE16=Johnny Cash - Wanted Man
TTITLE17=Hank Williams Jr. and Lois Johnson - Together Again
EXTD=
EXTT0=
EXTT1=
EXTT2=
EXTT3=
EXTT4=
EXTT5=
EXTT6=
EXTT7=
EXTT8=
EXTT9=
EXTT10=
EXTT11=
EXTT12=
EXTT13=
EXTT14=
EXTT15=
EXTT16=
EXTT17=
PLAYORDER=
